<svg width="24" height="25" viewBox="0 0 24 25" fill="none" xmlns="http://www.w3.org/2000/svg">
<path fill-rule="evenodd" clip-rule="evenodd" d="M5 11.5V12.5H13V5.5H3V4.5C3 3.948 3.448 3.5 4 3.5H14C14.552 3.5 15 3.948 15 4.5V6.5H19.667C20.784 6.5 21.267 7.076 21.603 7.607C22.197 8.547 23.139 10.039 23.712 10.985C23.9 11.297 24 11.655 24 12.02V16.5C24 17.589 23.257 18.5 22 18.5H21C21 20.156 19.656 21.5 18 21.5C16.344 21.5 15 20.156 15 18.5H11C11 20.156 9.656 21.5 8 21.5C6.344 21.5 5 20.156 5 18.5H4C3.448 18.5 3 18.052 3 17.5V11.5H1V9.5H8V11.5H5ZM8 17.3C8.662 17.3 9.2 17.838 9.2 18.5C9.2 19.162 8.662 19.7 8 19.7C7.338 19.7 6.8 19.162 6.8 18.5C6.8 17.838 7.338 17.3 8 17.3ZM18 17.3C18.662 17.3 19.2 17.838 19.2 18.5C19.2 19.162 18.662 19.7 18 19.7C17.338 19.7 16.8 19.162 16.8 18.5C16.8 17.838 17.338 17.3 18 17.3ZM15 14.5H5V16.5H5.765C6.314 15.886 7.112 15.5 8 15.5C8.888 15.5 9.686 15.886 10.235 16.5H15.765C16.314 15.886 17.112 15.5 18 15.5C18.888 15.5 19.686 15.886 20.235 16.5H22V11.925L20.289 8.996C20.11 8.689 19.781 8.5 19.426 8.5H15V14.5ZM16 9.5V12.5H21L19.573 10.004C19.395 9.692 19.064 9.5 18.705 9.5H16ZM0 6.5H8V8.5H0V6.5Z" fill="black"/>
</svg>
