<svg width="29" height="28" viewBox="0 0 29 28" fill="none" xmlns="http://www.w3.org/2000/svg">
<rect width="29" height="28" fill="#F5F5F5"/>
<g id="Szczeg&#195;&#179;&#197;&#130;y produktu">
<rect width="1920" height="1472.99" transform="translate(-989 -441)" fill="white"/>
<g id="div._mainContent_cehn8_1">
<g id="div._flexContainer_2nrx2_1">
<g id="div._blockContainer_11h7y_1">
<g id="div._flexContainer_2nrx2_1_2">
<g id="div._productSummaryContainer_14vmq_1">
<g id="div._deliveryInfo_14vmq_37">
<g id="div">
<g id="return-38ee15e2.svg">
<g id="return-38ee15e2.svg_2" clip-path="url(#clip0_0_1)">
<path id="return" d="M14.1899 0C10.3283 0 6.85044 1.5785 4.32111 4.109L1.42777 1.21567L0.189941 9.78017L8.86644 8.65317L5.96261 5.7505C8.07194 3.64117 10.9781 2.33333 14.1899 2.33333C20.6229 2.33333 25.8566 7.567 25.8566 14C25.8566 20.433 20.6229 25.6667 14.1899 25.6667C9.67261 25.6667 5.75611 23.0813 3.81827 19.3165L1.81511 20.5368C4.16244 24.9737 8.82094 28 14.1899 28C21.9214 28 28.1899 21.7315 28.1899 14C28.1899 6.2685 21.9214 0 14.1899 0Z" fill="black"/>
</g>
</g>
</g>
</g>
</g>
</g>
</g>
</g>
</g>
</g>
<defs>
<clipPath id="clip0_0_1">
<rect width="28" height="28" fill="white" transform="translate(0.189941)"/>
</clipPath>
</defs>
</svg>
